<svg width="909" height="508" viewBox="0 0 909 508" fill="none" xmlns="http://www.w3.org/2000/svg">
<path d="M10.8459 180.766H66.974L85.1331 301.276H180.881L200.691 179.115H601.842L620.001 58.6044H717.4L735.559 179.115H907.245" stroke="#F050F8" stroke-width="3.30165" stroke-miterlimit="10"/>
<path d="M11.6711 123.812H67.7992L85.9583 244.322H181.706L201.516 122.161H601.016L619.175 1.65088H718.225L736.384 122.161H908.07" stroke="#5840FF" stroke-width="3.30165" stroke-miterlimit="10"/>
<path d="M7.2142 439.219H7.18119C3.30175 439.219 0.0166016 436.908 0.0166016 433.342C0.0166016 429.776 3.26873 427.514 7.14817 427.514H7.18119C11.0606 427.514 14.3458 429.809 14.3458 433.375C14.3458 436.941 11.0936 439.219 7.2142 439.219ZM7.2142 429.149H7.18119C4.16017 429.149 1.43631 430.816 1.43631 433.391C1.43631 435.967 4.09414 437.601 7.13166 437.601H7.16468C10.1857 437.601 12.9096 435.934 12.9096 433.342C12.9096 430.75 10.2352 429.149 7.2142 429.149Z" fill="#BDF2FF"/>
<path d="M7.2142 425.055H7.18119C3.30175 425.055 0.0166016 422.743 0.0166016 419.178C0.0166016 415.612 3.26873 413.35 7.14817 413.35H7.18119C11.0606 413.35 14.3458 415.645 14.3458 419.211C14.3458 422.776 11.0936 425.055 7.2142 425.055ZM7.2142 414.985H7.18119C4.16017 414.985 1.43631 416.652 1.43631 419.227C1.43631 421.802 4.09414 423.437 7.13166 423.437H7.16468C10.1857 423.437 12.9096 421.769 12.9096 419.178C12.9096 416.586 10.2352 414.985 7.2142 414.985Z" fill="#BDF2FF"/>
<path d="M3.86304 410.511V408.695H5.94308V410.511H3.86304ZM12.0181 410.511V408.695H14.0982V410.511H12.0181Z" fill="#BDF2FF"/>
<path d="M7.2142 405.856H7.18119C3.30175 405.856 0.0166016 403.544 0.0166016 399.979C0.0166016 396.413 3.26873 394.151 7.14817 394.151H7.18119C11.0606 394.151 14.3458 396.446 14.3458 400.012C14.3458 403.577 11.0936 405.856 7.2142 405.856ZM7.2142 395.785H7.18119C4.16017 395.785 1.43631 397.453 1.43631 400.028C1.43631 402.603 4.09414 404.238 7.13166 404.238H7.16468C10.1857 404.238 12.9096 402.57 12.9096 399.979C12.9096 397.387 10.2352 395.785 7.2142 395.785Z" fill="#BDF2FF"/>
<path d="M7.2142 391.691H7.18119C3.30175 391.691 0.0166016 389.38 0.0166016 385.815C0.0166016 382.249 3.26873 379.987 7.14817 379.987H7.18119C11.0606 379.987 14.3458 382.282 14.3458 385.847C14.3458 389.413 11.0936 391.691 7.2142 391.691ZM7.2142 381.621H7.18119C4.16017 381.621 1.43631 383.289 1.43631 385.864C1.43631 388.439 4.09414 390.074 7.13166 390.074H7.16468C10.1857 390.074 12.9096 388.406 12.9096 385.815C12.9096 383.223 10.2352 381.621 7.2142 381.621Z" fill="#BDF2FF"/>
<path d="M45.5133 439.219H45.4803C41.6008 439.219 38.3157 436.908 38.3157 433.342C38.3157 429.776 41.5678 427.514 45.4472 427.514H45.4803C49.3597 427.514 52.6448 429.809 52.6448 433.375C52.6448 436.941 49.3927 439.219 45.5133 439.219ZM45.5133 429.149H45.4803C42.4592 429.149 39.7354 430.816 39.7354 433.391C39.7354 435.967 42.3932 437.601 45.4307 437.601H45.4638C48.4848 437.601 51.2086 435.934 51.2086 433.342C51.2086 430.75 48.5343 429.149 45.5133 429.149Z" fill="#BDF2FF"/>
<path d="M40.0657 422.843L40.8746 425.451L39.6035 425.831L38.4314 422.446V421.291H52.3974V422.843H40.0657Z" fill="#BDF2FF"/>
<path d="M42.1621 417.692V415.876H44.2421V417.692H42.1621ZM50.3172 417.692V415.876H52.3972V417.692H50.3172Z" fill="#BDF2FF"/>
<path d="M45.5133 413.037H45.4803C41.6008 413.037 38.3157 410.726 38.3157 407.16C38.3157 403.594 41.5678 401.332 45.4472 401.332H45.4803C49.3597 401.332 52.6448 403.627 52.6448 407.193C52.6448 410.759 49.3927 413.037 45.5133 413.037ZM45.5133 402.967H45.4803C42.4592 402.967 39.7354 404.634 39.7354 407.209C39.7354 409.785 42.3932 411.419 45.4307 411.419H45.4638C48.4848 411.419 51.2086 409.752 51.2086 407.16C51.2086 404.568 48.5343 402.967 45.5133 402.967Z" fill="#BDF2FF"/>
<path d="M45.5133 398.872H45.4803C41.6008 398.872 38.3157 396.561 38.3157 392.996C38.3157 389.43 41.5678 387.168 45.4472 387.168H45.4803C49.3597 387.168 52.6448 389.463 52.6448 393.029C52.6448 396.594 49.3927 398.872 45.5133 398.872ZM45.5133 388.802H45.4803C42.4592 388.802 39.7354 390.47 39.7354 393.045C39.7354 395.62 42.3932 397.255 45.4307 397.255H45.4638C48.4848 397.255 51.2086 395.587 51.2086 392.996C51.2086 390.404 48.5343 388.802 45.5133 388.802Z" fill="#BDF2FF"/>
<path d="M83.8126 439.219H83.7796C79.9001 439.219 76.615 436.908 76.615 433.342C76.615 429.776 79.8671 427.514 83.7466 427.514H83.7796C87.659 427.514 90.9442 429.809 90.9442 433.375C90.9442 436.941 87.692 439.219 83.8126 439.219ZM83.8126 429.149H83.7796C80.7586 429.149 78.0347 430.816 78.0347 433.391C78.0347 435.967 80.6925 437.601 83.7301 437.601H83.7631C86.7841 437.601 89.5079 435.934 89.5079 433.342C89.5079 430.75 86.8336 429.149 83.8126 429.149Z" fill="#BDF2FF"/>
<path d="M89.4915 425.533L85.0508 420.498C83.1524 418.385 82.0793 417.609 80.6926 417.609C79.0748 417.609 78.0348 418.897 78.0348 420.399C78.0348 421.984 78.8602 423.008 80.412 424.114L79.5866 425.269C77.7211 424.015 76.6316 422.71 76.6316 420.284C76.6316 417.857 78.2989 415.992 80.5441 415.992H80.5771C82.5911 415.992 83.8457 417.065 85.9588 419.491L89.2439 423.189V415.843H90.6636V425.517H89.4585L89.4915 425.533Z" fill="#BDF2FF"/>
<path d="M80.4614 413.004V411.188H82.5415V413.004H80.4614ZM88.6165 413.004V411.188H90.6965V413.004H88.6165Z" fill="#BDF2FF"/>
<path d="M83.8126 408.348H83.7796C79.9001 408.348 76.615 406.037 76.615 402.471C76.615 398.905 79.8671 396.644 83.7466 396.644H83.7796C87.659 396.644 90.9442 398.938 90.9442 402.504C90.9442 406.07 87.692 408.348 83.8126 408.348ZM83.8126 398.278H83.7796C80.7586 398.278 78.0347 399.945 78.0347 402.521C78.0347 405.096 80.6925 406.73 83.7301 406.73H83.7631C86.7841 406.73 89.5079 405.063 89.5079 402.471C89.5079 399.879 86.8336 398.278 83.8126 398.278Z" fill="#BDF2FF"/>
<path d="M83.8126 394.184H83.7796C79.9001 394.184 76.615 391.873 76.615 388.307C76.615 384.741 79.8671 382.48 83.7466 382.48H83.7796C87.659 382.48 90.9442 384.775 90.9442 388.34C90.9442 391.906 87.692 394.184 83.8126 394.184ZM83.8126 384.114H83.7796C80.7586 384.114 78.0347 385.782 78.0347 388.357C78.0347 390.932 80.6925 392.566 83.7301 392.566H83.7631C86.7841 392.566 89.5079 390.899 89.5079 388.307C89.5079 385.715 86.8336 384.114 83.8126 384.114Z" fill="#BDF2FF"/>
<path d="M122.112 439.219H122.079C118.199 439.219 114.914 436.908 114.914 433.342C114.914 429.776 118.166 427.514 122.046 427.514H122.079C125.958 427.514 129.243 429.809 129.243 433.375C129.243 436.941 125.991 439.219 122.112 439.219ZM122.112 429.149H122.079C119.058 429.149 116.334 430.816 116.334 433.391C116.334 435.967 118.992 437.601 122.029 437.601H122.062C125.083 437.601 127.807 435.934 127.807 433.342C127.807 430.75 125.133 429.149 122.112 429.149Z" fill="#BDF2FF"/>
<path d="M126.751 425.484L125.744 424.361C127.048 423.288 127.807 422.001 127.807 420.3C127.807 418.6 126.734 417.263 125.116 417.263H125.083C123.366 417.263 122.409 418.864 122.409 421.142V422.034L121.484 422.347L116.548 417.973V424.741H115.145V415.893H116.301L121.138 420.251C121.336 417.841 122.508 415.678 125.034 415.678H125.067C127.543 415.678 129.243 417.742 129.243 420.317C129.243 422.628 128.236 424.361 126.767 425.484H126.751Z" fill="#BDF2FF"/>
<path d="M118.76 412.74V410.924H120.841V412.74H118.76ZM126.916 412.74V410.924H128.996V412.74H126.916Z" fill="#BDF2FF"/>
<path d="M122.112 408.084H122.079C118.199 408.084 114.914 405.773 114.914 402.207C114.914 398.642 118.166 396.38 122.046 396.38H122.079C125.958 396.38 129.243 398.675 129.243 402.24C129.243 405.806 125.991 408.084 122.112 408.084ZM122.112 398.014H122.079C119.058 398.014 116.334 399.682 116.334 402.257C116.334 404.832 118.992 406.466 122.029 406.466H122.062C125.083 406.466 127.807 404.799 127.807 402.207C127.807 399.616 125.133 398.014 122.112 398.014Z" fill="#BDF2FF"/>
<path d="M122.112 393.92H122.079C118.199 393.92 114.914 391.609 114.914 388.043C114.914 384.477 118.166 382.216 122.046 382.216H122.079C125.958 382.216 129.243 384.51 129.243 388.076C129.243 391.642 125.991 393.92 122.112 393.92ZM122.112 383.85H122.079C119.058 383.85 116.334 385.517 116.334 388.093C116.334 390.668 118.992 392.302 122.029 392.302H122.062C125.083 392.302 127.807 390.635 127.807 388.043C127.807 385.451 125.133 383.85 122.112 383.85Z" fill="#BDF2FF"/>
<path d="M160.411 439.219H160.378C156.499 439.219 153.213 436.908 153.213 433.342C153.213 429.776 156.466 427.514 160.345 427.514H160.378C164.257 427.514 167.543 429.809 167.543 433.375C167.543 436.941 164.29 439.219 160.411 439.219ZM160.411 429.149H160.378C157.357 429.149 154.633 430.816 154.633 433.391C154.633 435.967 157.291 437.601 160.328 437.601H160.361C163.382 437.601 166.106 435.934 166.106 433.342C166.106 430.75 163.432 429.149 160.411 429.149Z" fill="#BDF2FF"/>
<path d="M164.01 417.725V425.038L162.887 425.434L153.345 417.593V416.223H162.705V414.06H164.01V416.223H167.295V417.725H164.01ZM162.705 417.725H155.557L162.705 423.552V417.725Z" fill="#BDF2FF"/>
<path d="M157.06 411.386V409.57H159.14V411.386H157.06ZM165.215 411.386V409.57H167.295V411.386H165.215Z" fill="#BDF2FF"/>
<path d="M160.411 406.731H160.378C156.499 406.731 153.213 404.419 153.213 400.854C153.213 397.288 156.466 395.026 160.345 395.026H160.378C164.257 395.026 167.543 397.321 167.543 400.887C167.543 404.452 164.29 406.731 160.411 406.731ZM160.411 396.66H160.378C157.357 396.66 154.633 398.328 154.633 400.903C154.633 403.478 157.291 405.113 160.328 405.113H160.361C163.382 405.113 166.106 403.445 166.106 400.854C166.106 398.262 163.432 396.66 160.411 396.66Z" fill="#BDF2FF"/>
<path d="M160.411 392.566H160.378C156.499 392.566 153.213 390.255 153.213 386.689C153.213 383.124 156.466 380.862 160.345 380.862H160.378C164.257 380.862 167.543 383.157 167.543 386.722C167.543 390.288 164.29 392.566 160.411 392.566ZM160.411 382.496H160.378C157.357 382.496 154.633 384.164 154.633 386.739C154.633 389.314 157.291 390.949 160.328 390.949H160.361C163.382 390.949 166.106 389.281 166.106 386.689C166.106 384.098 163.432 382.496 160.411 382.496Z" fill="#BDF2FF"/>
<path d="M198.71 439.219H198.677C194.798 439.219 191.512 436.908 191.512 433.342C191.512 429.776 194.765 427.514 198.644 427.514H198.677C202.556 427.514 205.842 429.809 205.842 433.375C205.842 436.941 202.589 439.219 198.71 439.219ZM198.71 429.149H198.677C195.656 429.149 192.932 430.816 192.932 433.391C192.932 435.967 195.59 437.601 198.628 437.601H198.661C201.682 437.601 204.405 435.934 204.405 433.342C204.405 430.75 201.731 429.149 198.71 429.149Z" fill="#BDF2FF"/>
<path d="M203.63 425.236L202.507 424.213C203.679 423.008 204.405 421.671 204.405 420.267C204.405 418.286 203.101 416.916 201.335 416.916H201.302C199.585 416.916 198.396 418.336 198.396 420.366C198.396 421.538 198.76 422.463 199.189 423.272L198.496 424.328L191.744 423.932V415.959H193.196V422.579L197.637 422.876C197.274 422.067 197.026 421.291 197.026 420.135C197.026 417.444 198.628 415.348 201.269 415.348H201.302C204.009 415.348 205.858 417.411 205.858 420.3C205.858 422.281 204.901 423.998 203.663 425.253L203.63 425.236Z" fill="#BDF2FF"/>
<path d="M195.359 412.558V410.742H197.439V412.558H195.359ZM203.514 412.558V410.742H205.594V412.558H203.514Z" fill="#BDF2FF"/>
<path d="M198.71 407.903H198.677C194.798 407.903 191.512 405.591 191.512 402.026C191.512 398.46 194.765 396.198 198.644 396.198H198.677C202.556 396.198 205.842 398.493 205.842 402.059C205.842 405.624 202.589 407.903 198.71 407.903ZM198.71 397.833H198.677C195.656 397.833 192.932 399.5 192.932 402.075C192.932 404.65 195.59 406.285 198.628 406.285H198.661C201.682 406.285 204.405 404.617 204.405 402.026C204.405 399.434 201.731 397.833 198.71 397.833Z" fill="#BDF2FF"/>
<path d="M198.71 393.738H198.677C194.798 393.738 191.512 391.427 191.512 387.861C191.512 384.296 194.765 382.034 198.644 382.034H198.677C202.556 382.034 205.842 384.329 205.842 387.894C205.842 391.46 202.589 393.738 198.71 393.738ZM198.71 383.668H198.677C195.656 383.668 192.932 385.336 192.932 387.911C192.932 390.486 195.59 392.121 198.628 392.121H198.661C201.682 392.121 204.405 390.453 204.405 387.861C204.405 385.27 201.731 383.668 198.71 383.668Z" fill="#BDF2FF"/>
<path d="M237.009 439.219H236.976C233.097 439.219 229.812 436.908 229.812 433.342C229.812 429.776 233.064 427.514 236.943 427.514H236.976C240.856 427.514 244.141 429.809 244.141 433.375C244.141 436.941 240.889 439.219 237.009 439.219ZM237.009 429.149H236.976C233.955 429.149 231.231 430.816 231.231 433.391C231.231 435.967 233.889 437.601 236.927 437.601H236.96C239.981 437.601 242.704 435.934 242.704 433.342C242.704 430.75 240.03 429.149 237.009 429.149Z" fill="#BDF2FF"/>
<path d="M242.721 423.338C241.615 424.444 240.179 425.088 237.356 425.088H237.323C233.113 425.088 229.795 422.942 229.795 419.326C229.795 417.659 230.389 416.437 231.38 415.232L232.585 416.14C231.71 417.164 231.215 418.138 231.215 419.409C231.215 422.083 234.021 423.486 237.158 423.486H237.356C236.035 422.578 235.226 421.324 235.226 419.524C235.226 416.949 236.893 414.737 239.485 414.737H239.518C242.193 414.737 244.124 416.9 244.124 419.706C244.124 421.225 243.596 422.479 242.721 423.354V423.338ZM239.568 416.322H239.535C237.834 416.322 236.563 417.709 236.563 419.706C236.563 421.704 238.049 423.173 239.584 423.173H239.617C241.384 423.173 242.721 421.704 242.721 419.673C242.721 417.643 241.318 416.322 239.551 416.322H239.568Z" fill="#BDF2FF"/>
<path d="M233.658 411.865V410.049H235.738V411.865H233.658ZM241.813 411.865V410.049H243.893V411.865H241.813Z" fill="#BDF2FF"/>
<path d="M237.009 407.209H236.976C233.097 407.209 229.812 404.898 229.812 401.332C229.812 397.767 233.064 395.505 236.943 395.505H236.976C240.856 395.505 244.141 397.8 244.141 401.365C244.141 404.931 240.889 407.209 237.009 407.209ZM237.009 397.139H236.976C233.955 397.139 231.231 398.807 231.231 401.382C231.231 403.957 233.889 405.591 236.927 405.591H236.96C239.981 405.591 242.704 403.924 242.704 401.332C242.704 398.741 240.03 397.139 237.009 397.139Z" fill="#BDF2FF"/>
<path d="M237.009 393.045H236.976C233.097 393.045 229.812 390.734 229.812 387.168C229.812 383.602 233.064 381.341 236.943 381.341H236.976C240.856 381.341 244.141 383.635 244.141 387.201C244.141 390.767 240.889 393.045 237.009 393.045ZM237.009 382.975H236.976C233.955 382.975 231.231 384.642 231.231 387.218C231.231 389.793 233.889 391.427 236.927 391.427H236.96C239.981 391.427 242.704 389.76 242.704 387.168C242.704 384.576 240.03 382.975 237.009 382.975Z" fill="#BDF2FF"/>
<path d="M275.308 439.219H275.275C271.396 439.219 268.111 436.908 268.111 433.342C268.111 429.776 271.363 427.514 275.242 427.514H275.275C279.155 427.514 282.44 429.809 282.44 433.375C282.44 436.941 279.188 439.219 275.308 439.219ZM275.308 429.149H275.275C272.254 429.149 269.531 430.816 269.531 433.391C269.531 435.967 272.188 437.601 275.226 437.601H275.259C278.28 437.601 281.004 435.934 281.004 433.342C281.004 430.75 278.329 429.149 275.308 429.149Z" fill="#BDF2FF"/>
<path d="M269.762 417.89V425.517H268.342V416.107H269.514L282.209 422.397V424.147L269.778 417.89H269.762Z" fill="#BDF2FF"/>
<path d="M271.957 413.449V411.634H274.037V413.449H271.957ZM280.112 413.449V411.634H282.192V413.449H280.112Z" fill="#BDF2FF"/>
<path d="M275.308 408.794H275.275C271.396 408.794 268.111 406.483 268.111 402.917C268.111 399.351 271.363 397.09 275.242 397.09H275.275C279.155 397.09 282.44 399.384 282.44 402.95C282.44 406.516 279.188 408.794 275.308 408.794ZM275.308 398.724H275.275C272.254 398.724 269.531 400.391 269.531 402.967C269.531 405.542 272.188 407.176 275.226 407.176H275.259C278.28 407.176 281.004 405.509 281.004 402.917C281.004 400.325 278.329 398.724 275.308 398.724Z" fill="#BDF2FF"/>
<path d="M275.308 394.63H275.275C271.396 394.63 268.111 392.319 268.111 388.753C268.111 385.187 271.363 382.926 275.242 382.926H275.275C279.155 382.926 282.44 385.22 282.44 388.786C282.44 392.352 279.188 394.63 275.308 394.63ZM275.308 384.56H275.275C272.254 384.56 269.531 386.227 269.531 388.802C269.531 391.378 272.188 393.012 275.226 393.012H275.259C278.28 393.012 281.004 391.345 281.004 388.753C281.004 386.161 278.329 384.56 275.308 384.56Z" fill="#BDF2FF"/>
<path d="M313.608 439.219H313.574C309.695 439.219 306.41 436.908 306.41 433.342C306.41 429.776 309.662 427.514 313.541 427.514H313.574C317.454 427.514 320.739 429.809 320.739 433.375C320.739 436.941 317.487 439.219 313.608 439.219ZM313.608 429.149H313.574C310.553 429.149 307.83 430.816 307.83 433.391C307.83 435.967 310.487 437.601 313.525 437.601H313.558C316.579 437.601 319.303 435.934 319.303 433.342C319.303 430.75 316.629 429.149 313.608 429.149Z" fill="#BDF2FF"/>
<path d="M316.761 425.253H316.728C315.077 425.253 313.921 424.064 313.327 422.397C312.733 423.684 311.742 424.774 310.141 424.774H310.108C307.962 424.774 306.443 422.578 306.443 420.036C306.443 417.494 307.962 415.298 310.108 415.298H310.141C311.742 415.298 312.733 416.388 313.327 417.675C313.938 416.025 315.077 414.819 316.711 414.819H316.744C319.105 414.819 320.689 417.081 320.689 420.02C320.689 422.958 319.088 425.22 316.761 425.22V425.253ZM316.728 416.421H316.694C315.143 416.421 314.053 418.022 314.053 420.036C314.053 422.05 315.143 423.651 316.694 423.651H316.728C318.131 423.651 319.319 422.298 319.319 420.036C319.319 417.774 318.131 416.421 316.728 416.421ZM310.24 416.883H310.207C308.837 416.883 307.813 418.253 307.813 420.053C307.813 421.852 308.82 423.222 310.207 423.222H310.24C311.742 423.222 312.782 421.819 312.782 420.053C312.782 418.286 311.759 416.883 310.24 416.883Z" fill="#BDF2FF"/>
<path d="M310.256 412.195V410.379H312.336V412.195H310.256ZM318.411 412.195V410.379H320.491V412.195H318.411Z" fill="#BDF2FF"/>
<path d="M313.608 407.539H313.574C309.695 407.539 306.41 405.228 306.41 401.662C306.41 398.097 309.662 395.835 313.541 395.835H313.574C317.454 395.835 320.739 398.13 320.739 401.695C320.739 405.261 317.487 407.539 313.608 407.539ZM313.608 397.469H313.574C310.553 397.469 307.83 399.137 307.83 401.712C307.83 404.287 310.487 405.922 313.525 405.922H313.558C316.579 405.922 319.303 404.254 319.303 401.662C319.303 399.071 316.629 397.469 313.608 397.469Z" fill="#BDF2FF"/>
<path d="M313.608 393.375H313.574C309.695 393.375 306.41 391.064 306.41 387.498C306.41 383.933 309.662 381.671 313.541 381.671H313.574C317.454 381.671 320.739 383.966 320.739 387.531C320.739 391.097 317.487 393.375 313.608 393.375ZM313.608 383.305H313.574C310.553 383.305 307.83 384.973 307.83 387.548C307.83 390.123 310.487 391.757 313.525 391.757H313.558C316.579 391.757 319.303 390.09 319.303 387.498C319.303 384.907 316.629 383.305 313.608 383.305Z" fill="#BDF2FF"/>
<path d="M351.907 439.219H351.874C347.994 439.219 344.709 436.908 344.709 433.342C344.709 429.776 347.961 427.514 351.841 427.514H351.874C355.753 427.514 359.038 429.809 359.038 433.375C359.038 436.941 355.786 439.219 351.907 439.219ZM351.907 429.149H351.874C348.853 429.149 346.129 430.816 346.129 433.391C346.129 435.967 348.787 437.601 351.824 437.601H351.857C354.878 437.601 357.602 435.934 357.602 433.342C357.602 430.75 354.928 429.149 351.907 429.149Z" fill="#BDF2FF"/>
<path d="M351.824 416.289H351.544C352.897 417.164 353.739 418.435 353.739 420.201C353.739 423.057 351.94 425.038 349.447 425.038H349.414C346.789 425.038 344.709 422.991 344.709 420.053C344.709 418.468 345.237 417.296 346.129 416.404C347.185 415.348 348.721 414.688 351.494 414.688H351.527C355.918 414.688 359.038 417.032 359.038 420.449C359.038 422.248 358.312 423.552 357.338 424.725L356.133 423.817C357.123 422.694 357.619 421.637 357.619 420.416C357.619 417.742 354.829 416.305 351.841 416.305L351.824 416.289ZM349.266 416.586H349.233C347.466 416.586 346.079 418.039 346.079 420.119C346.079 422.199 347.598 423.437 349.332 423.437H349.365C351.131 423.437 352.386 422.05 352.386 420.036C352.386 418.022 350.834 416.586 349.249 416.586H349.266Z" fill="#BDF2FF"/>
<path d="M348.556 411.865V410.049H350.636V411.865H348.556ZM356.711 411.865V410.049H358.791V411.865H356.711Z" fill="#BDF2FF"/>
<path d="M351.907 407.209H351.874C347.994 407.209 344.709 404.898 344.709 401.332C344.709 397.767 347.961 395.505 351.841 395.505H351.874C355.753 395.505 359.038 397.8 359.038 401.365C359.038 404.931 355.786 407.209 351.907 407.209ZM351.907 397.139H351.874C348.853 397.139 346.129 398.807 346.129 401.382C346.129 403.957 348.787 405.591 351.824 405.591H351.857C354.878 405.591 357.602 403.924 357.602 401.332C357.602 398.741 354.928 397.139 351.907 397.139Z" fill="#BDF2FF"/>
<path d="M351.907 393.045H351.874C347.994 393.045 344.709 390.734 344.709 387.168C344.709 383.602 347.961 381.341 351.841 381.341H351.874C355.753 381.341 359.038 383.635 359.038 387.201C359.038 390.767 355.786 393.045 351.907 393.045ZM351.907 382.975H351.874C348.853 382.975 346.129 384.642 346.129 387.218C346.129 389.793 348.787 391.427 351.824 391.427H351.857C354.878 391.427 357.602 389.76 357.602 387.168C357.602 384.576 354.928 382.975 351.907 382.975Z" fill="#BDF2FF"/>
<path d="M384.758 436.908L385.567 439.516L384.296 439.896L383.124 436.511V435.356H397.09V436.908H384.758Z" fill="#BDF2FF"/>
<path d="M390.206 432.12H390.173C386.293 432.12 383.008 429.809 383.008 426.243C383.008 422.677 386.26 420.416 390.14 420.416H390.173C394.052 420.416 397.337 422.71 397.337 426.276C397.337 429.842 394.085 432.12 390.206 432.12ZM390.206 422.05H390.173C387.152 422.05 384.428 423.717 384.428 426.293C384.428 428.868 387.086 430.502 390.123 430.502H390.156C393.177 430.502 395.901 428.835 395.901 426.243C395.901 423.651 393.227 422.05 390.206 422.05Z" fill="#BDF2FF"/>
<path d="M386.854 417.593V415.777H388.935V417.593H386.854ZM395.01 417.593V415.777H397.09V417.593H395.01Z" fill="#BDF2FF"/>
<path d="M390.206 412.938H390.173C386.293 412.938 383.008 410.626 383.008 407.061C383.008 403.495 386.26 401.233 390.14 401.233H390.173C394.052 401.233 397.337 403.528 397.337 407.094C397.337 410.659 394.085 412.938 390.206 412.938ZM390.206 402.867H390.173C387.152 402.867 384.428 404.535 384.428 407.11C384.428 409.685 387.086 411.32 390.123 411.32H390.156C393.177 411.32 395.901 409.652 395.901 407.061C395.901 404.469 393.227 402.867 390.206 402.867Z" fill="#BDF2FF"/>
<path d="M390.206 398.774H390.173C386.293 398.774 383.008 396.462 383.008 392.897C383.008 389.331 386.26 387.069 390.14 387.069H390.173C394.052 387.069 397.337 389.364 397.337 392.93C397.337 396.495 394.085 398.774 390.206 398.774ZM390.206 388.704H390.173C387.152 388.704 384.428 390.371 384.428 392.946C384.428 395.521 387.086 397.156 390.123 397.156H390.156C393.177 397.156 395.901 395.488 395.901 392.897C395.901 390.305 393.227 388.704 390.206 388.704Z" fill="#BDF2FF"/>
<path d="M423.057 436.908L423.866 439.516L422.595 439.896L421.423 436.511V435.356H435.389V436.908H423.057Z" fill="#BDF2FF"/>
<path d="M423.057 429.809L423.866 432.417L422.595 432.797L421.423 429.413V428.257H435.389V429.809H423.057Z" fill="#BDF2FF"/>
<path d="M425.154 424.658V422.842H427.234V424.658H425.154ZM433.309 424.658V422.842H435.389V424.658H433.309Z" fill="#BDF2FF"/>
<path d="M428.505 420.003H428.472C424.592 420.003 421.307 417.692 421.307 414.126C421.307 410.56 424.559 408.299 428.439 408.299H428.472C432.351 408.299 435.637 410.593 435.637 414.159C435.637 417.725 432.384 420.003 428.505 420.003ZM428.505 409.933H428.472C425.451 409.933 422.727 411.6 422.727 414.176C422.727 416.751 425.385 418.385 428.422 418.385H428.455C431.476 418.385 434.2 416.718 434.2 414.126C434.2 411.534 431.526 409.933 428.505 409.933Z" fill="#BDF2FF"/>
<path d="M428.505 405.839H428.472C424.592 405.839 421.307 403.528 421.307 399.962C421.307 396.396 424.559 394.135 428.439 394.135H428.472C432.351 394.135 435.637 396.429 435.637 399.995C435.637 403.561 432.384 405.839 428.505 405.839ZM428.505 395.769H428.472C425.451 395.769 422.727 397.436 422.727 400.012C422.727 402.587 425.385 404.221 428.422 404.221H428.455C431.476 404.221 434.2 402.554 434.2 399.962C434.2 397.37 431.526 395.769 428.505 395.769Z" fill="#BDF2FF"/>
<path d="M461.356 436.908L462.165 439.516L460.894 439.896L459.722 436.511V435.356H473.688V436.908H461.356Z" fill="#BDF2FF"/>
<path d="M472.483 432.401L468.042 427.366C466.144 425.253 465.071 424.477 463.684 424.477C462.066 424.477 461.026 425.764 461.026 427.267C461.026 428.852 461.852 429.875 463.403 430.981L462.578 432.137C460.713 430.882 459.623 429.578 459.623 427.151C459.623 424.724 461.29 422.859 463.535 422.859H463.568C465.583 422.859 466.837 423.932 468.95 426.359L472.235 430.057V422.71H473.655V432.384H472.45L472.483 432.401Z" fill="#BDF2FF"/>
<path d="M463.453 419.888V418.072H465.533V419.888H463.453ZM471.608 419.888V418.072H473.688V419.888H471.608Z" fill="#BDF2FF"/>
<path d="M466.804 415.232H466.771C462.892 415.232 459.606 412.921 459.606 409.355C459.606 405.789 462.859 403.528 466.738 403.528H466.771C470.65 403.528 473.936 405.822 473.936 409.388C473.936 412.954 470.683 415.232 466.804 415.232ZM466.804 405.162H466.771C463.75 405.162 461.026 406.829 461.026 409.405C461.026 411.98 463.684 413.614 466.722 413.614H466.755C469.776 413.614 472.499 411.947 472.499 409.355C472.499 406.763 469.825 405.162 466.804 405.162Z" fill="#BDF2FF"/>
<path d="M466.804 401.068H466.771C462.892 401.068 459.606 398.757 459.606 395.191C459.606 391.626 462.859 389.364 466.738 389.364H466.771C470.65 389.364 473.936 391.659 473.936 395.224C473.936 398.79 470.683 401.068 466.804 401.068ZM466.804 390.998H466.771C463.75 390.998 461.026 392.666 461.026 395.241C461.026 397.816 463.684 399.45 466.722 399.45H466.755C469.776 399.45 472.499 397.783 472.499 395.191C472.499 392.6 469.825 390.998 466.804 390.998Z" fill="#BDF2FF"/>
<path d="M499.655 436.908L500.464 439.516L499.193 439.896L498.021 436.511V435.356H511.987V436.908H499.655Z" fill="#BDF2FF"/>
<path d="M509.742 432.368L508.735 431.245C510.039 430.172 510.799 428.885 510.799 427.184C510.799 425.484 509.726 424.147 508.108 424.147H508.075C506.358 424.147 505.4 425.748 505.4 428.026V428.918L504.476 429.231L499.54 424.857V431.625H498.137V422.777H499.292L504.129 427.135C504.327 424.725 505.499 422.562 508.025 422.562H508.058C510.534 422.562 512.235 424.626 512.235 427.201C512.235 429.512 511.228 431.245 509.759 432.368H509.742Z" fill="#BDF2FF"/>
<path d="M501.752 419.607V417.791H503.832V419.607H501.752ZM509.907 419.607V417.791H511.987V419.607H509.907Z" fill="#BDF2FF"/>
<path d="M505.103 414.952H505.07C501.191 414.952 497.906 412.64 497.906 409.075C497.906 405.509 501.158 403.247 505.037 403.247H505.07C508.95 403.247 512.235 405.542 512.235 409.108C512.235 412.673 508.983 414.952 505.103 414.952ZM505.103 404.881H505.07C502.049 404.881 499.325 406.549 499.325 409.124C499.325 411.699 501.983 413.334 505.021 413.334H505.054C508.075 413.334 510.799 411.666 510.799 409.075C510.799 406.483 508.124 404.881 505.103 404.881Z" fill="#BDF2FF"/>
<path d="M505.103 400.787H505.07C501.191 400.787 497.906 398.476 497.906 394.911C497.906 391.345 501.158 389.083 505.037 389.083H505.07C508.95 389.083 512.235 391.378 512.235 394.944C512.235 398.509 508.983 400.787 505.103 400.787ZM505.103 390.717H505.07C502.049 390.717 499.325 392.385 499.325 394.96C499.325 397.535 501.983 399.17 505.021 399.17H505.054C508.075 399.17 510.799 397.502 510.799 394.911C510.799 392.319 508.124 390.717 505.103 390.717Z" fill="#BDF2FF"/>
<path d="M537.955 436.908L538.764 439.516L537.492 439.896L536.32 436.511V435.356H550.286V436.908H537.955Z" fill="#BDF2FF"/>
<path d="M547.001 424.807V432.12L545.879 432.516L536.337 424.675V423.305H545.697V421.142H547.001V423.305H550.286V424.807H547.001ZM545.697 424.807H538.549L545.697 430.634V424.807Z" fill="#BDF2FF"/>
<path d="M540.051 418.451V416.635H542.131V418.451H540.051ZM548.206 418.451V416.635H550.286V418.451H548.206Z" fill="#BDF2FF"/>
<path d="M543.403 413.813H543.37C539.49 413.813 536.205 411.501 536.205 407.936C536.205 404.37 539.457 402.108 543.337 402.108H543.37C547.249 402.108 550.534 404.403 550.534 407.969C550.534 411.534 547.282 413.813 543.403 413.813ZM543.403 403.742H543.37C540.349 403.742 537.625 405.41 537.625 407.985C537.625 410.56 540.283 412.195 543.32 412.195H543.353C546.374 412.195 549.098 410.527 549.098 407.936C549.098 405.344 546.424 403.742 543.403 403.742Z" fill="#BDF2FF"/>
<path d="M543.403 399.632H543.37C539.49 399.632 536.205 397.321 536.205 393.755C536.205 390.189 539.457 387.928 543.337 387.928H543.37C547.249 387.928 550.534 390.222 550.534 393.788C550.534 397.354 547.282 399.632 543.403 399.632ZM543.403 389.562H543.37C540.349 389.562 537.625 391.229 537.625 393.805C537.625 396.38 540.283 398.014 543.32 398.014H543.353C546.374 398.014 549.098 396.347 549.098 393.755C549.098 391.163 546.424 389.562 543.403 389.562Z" fill="#BDF2FF"/>
<path d="M576.254 436.908L577.063 439.516L575.792 439.896L574.62 436.511V435.356H588.586V436.908H576.254Z" fill="#BDF2FF"/>
<path d="M586.621 432.302L585.499 431.278C586.671 430.073 587.397 428.736 587.397 427.333C587.397 425.352 586.093 423.981 584.327 423.981H584.294C582.577 423.981 581.388 425.401 581.388 427.432C581.388 428.604 581.751 429.528 582.181 430.337L581.487 431.394L574.735 430.997V423.024H576.188V429.644L580.629 429.941C580.266 429.132 580.018 428.356 580.018 427.201C580.018 424.51 581.619 422.413 584.261 422.413H584.294C587.001 422.413 588.85 424.477 588.85 427.366C588.85 429.347 587.892 431.064 586.654 432.318L586.621 432.302Z" fill="#BDF2FF"/>
<path d="M578.351 419.624V417.808H580.431V419.624H578.351ZM586.506 419.624V417.808H588.586V419.624H586.506Z" fill="#BDF2FF"/>
<path d="M581.701 414.968H581.668C577.789 414.968 574.504 412.657 574.504 409.091C574.504 405.525 577.756 403.264 581.635 403.264H581.668C585.548 403.264 588.833 405.558 588.833 409.124C588.833 412.69 585.581 414.968 581.701 414.968ZM581.701 404.898H581.668C578.647 404.898 575.924 406.565 575.924 409.141C575.924 411.716 578.581 413.35 581.619 413.35H581.652C584.673 413.35 587.397 411.683 587.397 409.091C587.397 406.499 584.722 404.898 581.701 404.898Z" fill="#BDF2FF"/>
<path d="M581.701 400.804H581.668C577.789 400.804 574.504 398.493 574.504 394.927C574.504 391.361 577.756 389.1 581.635 389.1H581.668C585.548 389.1 588.833 391.394 588.833 394.96C588.833 398.526 585.581 400.804 581.701 400.804ZM581.701 390.734H581.668C578.647 390.734 575.924 392.401 575.924 394.977C575.924 397.552 578.581 399.186 581.619 399.186H581.652C584.673 399.186 587.397 397.519 587.397 394.927C587.397 392.335 584.722 390.734 581.701 390.734Z" fill="#BDF2FF"/>
<path d="M614.553 436.908L615.362 439.516L614.091 439.896L612.919 436.511V435.356H626.885V436.908H614.553Z" fill="#BDF2FF"/>
<path d="M625.713 430.403C624.607 431.509 623.17 432.153 620.347 432.153H620.314C616.105 432.153 612.787 430.007 612.787 426.392C612.787 424.724 613.381 423.503 614.371 422.298L615.577 423.206C614.702 424.229 614.206 425.203 614.206 426.474C614.206 429.149 617.013 430.552 620.149 430.552H620.347C619.027 429.644 618.218 428.389 618.218 426.59C618.218 424.015 619.885 421.802 622.477 421.802H622.51C625.184 421.802 627.116 423.965 627.116 426.771C627.116 428.29 626.588 429.545 625.713 430.42V430.403ZM622.559 423.387H622.526C620.826 423.387 619.555 424.774 619.555 426.771C619.555 428.769 621.041 430.238 622.576 430.238H622.609C624.375 430.238 625.713 428.769 625.713 426.738C625.713 424.708 624.309 423.387 622.543 423.387H622.559Z" fill="#BDF2FF"/>
<path d="M616.65 418.93V417.114H618.73V418.93H616.65ZM624.805 418.93V417.114H626.885V418.93H624.805Z" fill="#BDF2FF"/>
<path d="M620.001 414.275H619.968C616.088 414.275 612.803 411.964 612.803 408.398C612.803 404.832 616.055 402.57 619.935 402.57H619.968C623.847 402.57 627.132 404.865 627.132 408.431C627.132 411.997 623.88 414.275 620.001 414.275ZM620.001 404.205H619.968C616.947 404.205 614.223 405.872 614.223 408.447C614.223 411.023 616.881 412.657 619.918 412.657H619.951C622.972 412.657 625.696 410.99 625.696 408.398C625.696 405.806 623.022 404.205 620.001 404.205Z" fill="#BDF2FF"/>
<path d="M620.001 400.111H619.968C616.088 400.111 612.803 397.799 612.803 394.234C612.803 390.668 616.055 388.406 619.935 388.406H619.968C623.847 388.406 627.132 390.701 627.132 394.267C627.132 397.832 623.88 400.111 620.001 400.111ZM620.001 390.041H619.968C616.947 390.041 614.223 391.708 614.223 394.283C614.223 396.858 616.881 398.493 619.918 398.493H619.951C622.972 398.493 625.696 396.825 625.696 394.234C625.696 391.642 623.022 390.041 620.001 390.041Z" fill="#BDF2FF"/>
<path d="M652.852 436.908L653.661 439.516L652.39 439.896L651.218 436.511V435.356H665.184V436.908H652.852Z" fill="#BDF2FF"/>
<path d="M652.753 424.394V432.021H651.333V422.612H652.506L665.2 428.901V430.651L652.77 424.394H652.753Z" fill="#BDF2FF"/>
<path d="M654.949 419.937V418.121H657.029V419.937H654.949ZM663.104 419.937V418.121H665.184V419.937H663.104Z" fill="#BDF2FF"/>
<path d="M658.3 415.282H658.267C654.388 415.282 651.103 412.971 651.103 409.405C651.103 405.839 654.355 403.577 658.234 403.577H658.267C662.147 403.577 665.432 405.872 665.432 409.438C665.432 413.004 662.18 415.282 658.3 415.282ZM658.3 405.212H658.267C655.246 405.212 652.522 406.879 652.522 409.454C652.522 412.03 655.18 413.664 658.218 413.664H658.251C661.272 413.664 663.995 411.997 663.995 409.405C663.995 406.813 661.321 405.212 658.3 405.212Z" fill="#BDF2FF"/>
<path d="M658.3 401.118H658.267C654.388 401.118 651.103 398.806 651.103 395.241C651.103 391.675 654.355 389.413 658.234 389.413H658.267C662.147 389.413 665.432 391.708 665.432 395.274C665.432 398.839 662.18 401.118 658.3 401.118ZM658.3 391.048H658.267C655.246 391.048 652.522 392.715 652.522 395.29C652.522 397.865 655.18 399.5 658.218 399.5H658.251C661.272 399.5 663.995 397.832 663.995 395.241C663.995 392.649 661.321 391.048 658.3 391.048Z" fill="#BDF2FF"/>
<path d="M691.151 436.908L691.96 439.516L690.689 439.896L689.517 436.511V435.356H703.483V436.908H691.151Z" fill="#BDF2FF"/>
<path d="M699.752 432.318H699.719C698.068 432.318 696.913 431.13 696.318 429.462C695.724 430.75 694.734 431.839 693.132 431.839H693.099C690.953 431.839 689.435 429.644 689.435 427.102C689.435 424.559 690.953 422.364 693.099 422.364H693.132C694.734 422.364 695.724 423.453 696.318 424.741C696.929 423.09 698.068 421.885 699.703 421.885H699.736C702.096 421.885 703.681 424.147 703.681 427.085C703.681 430.024 702.08 432.285 699.752 432.285V432.318ZM699.719 423.486H699.686C698.134 423.486 697.045 425.088 697.045 427.102C697.045 429.116 698.134 430.717 699.686 430.717H699.719C701.122 430.717 702.311 429.363 702.311 427.102C702.311 424.84 701.122 423.486 699.719 423.486ZM693.231 423.949H693.198C691.828 423.949 690.805 425.319 690.805 427.118C690.805 428.918 691.812 430.288 693.198 430.288H693.231C694.734 430.288 695.774 428.885 695.774 427.118C695.774 425.352 694.75 423.949 693.231 423.949Z" fill="#BDF2FF"/>
<path d="M693.248 419.277V417.461H695.328V419.277H693.248ZM701.403 419.277V417.461H703.483V419.277H701.403Z" fill="#BDF2FF"/>
<path d="M696.599 414.621H696.566C692.687 414.621 689.401 412.31 689.401 408.745C689.401 405.179 692.654 402.917 696.533 402.917H696.566C700.445 402.917 703.731 405.212 703.731 408.778C703.731 412.343 700.478 414.621 696.599 414.621ZM696.599 404.551H696.566C693.545 404.551 690.821 406.219 690.821 408.794C690.821 411.369 693.479 413.004 696.516 413.004H696.549C699.57 413.004 702.294 411.336 702.294 408.745C702.294 406.153 699.62 404.551 696.599 404.551Z" fill="#BDF2FF"/>
<path d="M696.599 400.457H696.566C692.687 400.457 689.401 398.146 689.401 394.58C689.401 391.015 692.654 388.753 696.533 388.753H696.566C700.445 388.753 703.731 391.048 703.731 394.613C703.731 398.179 700.478 400.457 696.599 400.457ZM696.599 390.387H696.566C693.545 390.387 690.821 392.055 690.821 394.63C690.821 397.205 693.479 398.84 696.516 398.84H696.549C699.57 398.84 702.294 397.172 702.294 394.58C702.294 391.989 699.62 390.387 696.599 390.387Z" fill="#BDF2FF"/>
<path d="M729.451 436.908L730.26 439.516L728.988 439.896L727.816 436.511V435.356H741.782V436.908H729.451Z" fill="#BDF2FF"/>
<path d="M734.816 423.354H734.535C735.889 424.229 736.731 425.5 736.731 427.267C736.731 430.123 734.931 432.104 732.439 432.104H732.406C729.781 432.104 727.701 430.057 727.701 427.118C727.701 425.533 728.229 424.361 729.12 423.47C730.177 422.413 731.712 421.753 734.486 421.753H734.519C738.91 421.753 742.03 424.097 742.03 427.514C742.03 429.314 741.303 430.618 740.329 431.79L739.124 430.882C740.115 429.76 740.61 428.703 740.61 427.481C740.61 424.807 737.82 423.371 734.832 423.371L734.816 423.354ZM732.257 423.652H732.224C730.458 423.652 729.071 425.104 729.071 427.184C729.071 429.264 730.59 430.502 732.323 430.502H732.356C734.122 430.502 735.377 429.116 735.377 427.102C735.377 425.088 733.825 423.652 732.24 423.652H732.257Z" fill="#BDF2FF"/>
<path d="M731.547 418.93V417.114H733.627V418.93H731.547ZM739.702 418.93V417.114H741.782V418.93H739.702Z" fill="#BDF2FF"/>
<path d="M734.898 414.275H734.865C730.986 414.275 727.701 411.964 727.701 408.398C727.701 404.832 730.953 402.57 734.832 402.57H734.865C738.745 402.57 742.03 404.865 742.03 408.431C742.03 411.997 738.778 414.275 734.898 414.275ZM734.898 404.205H734.865C731.844 404.205 729.12 405.872 729.12 408.447C729.12 411.023 731.778 412.657 734.816 412.657H734.849C737.87 412.657 740.594 410.99 740.594 408.398C740.594 405.806 737.919 404.205 734.898 404.205Z" fill="#BDF2FF"/>
<path d="M734.898 400.111H734.865C730.986 400.111 727.701 397.799 727.701 394.234C727.701 390.668 730.953 388.406 734.832 388.406H734.865C738.745 388.406 742.03 390.701 742.03 394.267C742.03 397.832 738.778 400.111 734.898 400.111ZM734.898 390.041H734.865C731.844 390.041 729.12 391.708 729.12 394.283C729.12 396.858 731.778 398.493 734.816 398.493H734.849C737.87 398.493 740.594 396.825 740.594 394.234C740.594 391.642 737.919 390.041 734.898 390.041Z" fill="#BDF2FF"/>
<path d="M778.877 439.499L774.436 434.464C772.537 432.351 771.464 431.575 770.078 431.575C768.46 431.575 767.42 432.863 767.42 434.365C767.42 435.95 768.245 436.973 769.797 438.079L768.972 439.235C767.106 437.98 766.017 436.676 766.017 434.25C766.017 431.823 767.684 429.957 769.929 429.957H769.962C771.976 429.957 773.231 431.03 775.344 433.457L778.629 437.155V429.809H780.049V439.483H778.844L778.877 439.499Z" fill="#BDF2FF"/>
<path d="M773.198 427.349H773.165C769.285 427.349 766 425.038 766 421.472C766 417.907 769.252 415.645 773.132 415.645H773.165C777.044 415.645 780.329 417.94 780.329 421.505C780.329 425.071 777.077 427.349 773.198 427.349ZM773.198 417.279H773.165C770.144 417.279 767.42 418.947 767.42 421.522C767.42 424.097 770.078 425.731 773.115 425.731H773.148C776.169 425.731 778.893 424.064 778.893 421.472C778.893 418.881 776.219 417.279 773.198 417.279Z" fill="#BDF2FF"/>
<path d="M769.846 412.806V410.99H771.926V412.806H769.846ZM778.001 412.806V410.99H780.081V412.806H778.001Z" fill="#BDF2FF"/>
<path d="M773.198 408.15H773.165C769.285 408.15 766 405.839 766 402.273C766 398.707 769.252 396.446 773.132 396.446H773.165C777.044 396.446 780.329 398.74 780.329 402.306C780.329 405.872 777.077 408.15 773.198 408.15ZM773.198 398.08H773.165C770.144 398.08 767.42 399.747 767.42 402.323C767.42 404.898 770.078 406.532 773.115 406.532H773.148C776.169 406.532 778.893 404.865 778.893 402.273C778.893 399.681 776.219 398.08 773.198 398.08Z" fill="#BDF2FF"/>
<path d="M773.198 393.986H773.165C769.285 393.986 766 391.675 766 388.109C766 384.543 769.252 382.282 773.132 382.282H773.165C777.044 382.282 780.329 384.576 780.329 388.142C780.329 391.708 777.077 393.986 773.198 393.986ZM773.198 383.916H773.165C770.144 383.916 767.42 385.583 767.42 388.159C767.42 390.734 770.078 392.368 773.115 392.368H773.148C776.169 392.368 778.893 390.701 778.893 388.109C778.893 385.517 776.219 383.916 773.198 383.916Z" fill="#BDF2FF"/>
<path d="M817.175 439.499L812.735 434.464C810.836 432.351 809.763 431.575 808.376 431.575C806.759 431.575 805.719 432.863 805.719 434.365C805.719 435.95 806.544 436.973 808.096 438.079L807.27 439.235C805.405 437.98 804.315 436.676 804.315 434.25C804.315 431.823 805.983 429.957 808.228 429.957H808.261C810.275 429.957 811.53 431.03 813.643 433.457L816.928 437.155V429.809H818.347V439.483H817.142L817.175 439.499Z" fill="#BDF2FF"/>
<path d="M806.049 425.038L806.858 427.646L805.587 428.026L804.415 424.642V423.486H818.381V425.038H806.049Z" fill="#BDF2FF"/>
<path d="M808.146 419.888V418.072H810.226V419.888H808.146ZM816.301 419.888V418.072H818.381V419.888H816.301Z" fill="#BDF2FF"/>
<path d="M811.496 415.232H811.463C807.584 415.232 804.299 412.921 804.299 409.355C804.299 405.789 807.551 403.528 811.43 403.528H811.463C815.343 403.528 818.628 405.822 818.628 409.388C818.628 412.954 815.376 415.232 811.496 415.232ZM811.496 405.162H811.463C808.442 405.162 805.719 406.829 805.719 409.405C805.719 411.98 808.376 413.614 811.414 413.614H811.447C814.468 413.614 817.192 411.947 817.192 409.355C817.192 406.763 814.517 405.162 811.496 405.162Z" fill="#BDF2FF"/>
<path d="M811.496 401.068H811.463C807.584 401.068 804.299 398.757 804.299 395.191C804.299 391.626 807.551 389.364 811.43 389.364H811.463C815.343 389.364 818.628 391.659 818.628 395.224C818.628 398.79 815.376 401.068 811.496 401.068ZM811.496 390.998H811.463C808.442 390.998 805.719 392.666 805.719 395.241C805.719 397.816 808.376 399.45 811.414 399.45H811.447C814.468 399.45 817.192 397.783 817.192 395.191C817.192 392.6 814.517 390.998 811.496 390.998Z" fill="#BDF2FF"/>
<path d="M855.475 439.499L851.034 434.464C849.136 432.351 848.062 431.575 846.676 431.575C845.058 431.575 844.018 432.863 844.018 434.365C844.018 435.95 844.843 436.973 846.395 438.079L845.57 439.235C843.704 437.98 842.615 436.676 842.615 434.25C842.615 431.823 844.282 429.957 846.527 429.957H846.56C848.574 429.957 849.829 431.03 851.942 433.457L855.227 437.155V429.809H856.647V439.483H855.442L855.475 439.499Z" fill="#BDF2FF"/>
<path d="M855.475 427.63L851.034 422.595C849.136 420.482 848.062 419.706 846.676 419.706C845.058 419.706 844.018 420.994 844.018 422.496C844.018 424.081 844.843 425.104 846.395 426.21L845.57 427.366C843.704 426.111 842.615 424.807 842.615 422.38C842.615 419.954 844.282 418.088 846.527 418.088H846.56C848.574 418.088 849.829 419.161 851.942 421.588L855.227 425.286V417.94H856.647V427.613H855.442L855.475 427.63Z" fill="#BDF2FF"/>
<path d="M846.445 415.117V413.301H848.525V415.117H846.445ZM854.6 415.117V413.301H856.68V415.117H854.6Z" fill="#BDF2FF"/>
<path d="M849.796 410.461H849.763C845.883 410.461 842.598 408.15 842.598 404.584C842.598 401.019 845.85 398.757 849.73 398.757H849.763C853.642 398.757 856.927 401.052 856.927 404.617C856.927 408.183 853.675 410.461 849.796 410.461ZM849.796 400.391H849.763C846.742 400.391 844.018 402.059 844.018 404.634C844.018 407.209 846.676 408.844 849.713 408.844H849.746C852.767 408.844 855.491 407.176 855.491 404.584C855.491 401.993 852.817 400.391 849.796 400.391Z" fill="#BDF2FF"/>
<path d="M849.796 396.297H849.763C845.883 396.297 842.598 393.986 842.598 390.42C842.598 386.855 845.85 384.593 849.73 384.593H849.763C853.642 384.593 856.927 386.888 856.927 390.453C856.927 394.019 853.675 396.297 849.796 396.297ZM849.796 386.227H849.763C846.742 386.227 844.018 387.895 844.018 390.47C844.018 393.045 846.676 394.679 849.713 394.679H849.746C852.767 394.679 855.491 393.012 855.491 390.42C855.491 387.829 852.817 386.227 849.796 386.227Z" fill="#BDF2FF"/>
<path d="M893.774 439.499L889.333 434.464C887.435 432.351 886.362 431.575 884.975 431.575C883.357 431.575 882.317 432.863 882.317 434.365C882.317 435.95 883.143 436.973 884.694 438.079L883.869 439.235C882.004 437.98 880.914 436.676 880.914 434.25C880.914 431.823 882.581 429.957 884.827 429.957H884.86C886.874 429.957 888.128 431.03 890.241 433.457L893.526 437.155V429.809H894.946V439.483H893.741L893.774 439.499Z" fill="#BDF2FF"/>
<path d="M892.734 427.597L891.727 426.474C893.031 425.401 893.79 424.114 893.79 422.413C893.79 420.713 892.717 419.392 891.099 419.392H891.066C889.35 419.392 888.392 420.994 888.392 423.272V424.163L887.468 424.477L882.532 420.102V426.871H881.128V418.022H882.284L887.121 422.38C887.319 419.97 888.491 417.808 891.017 417.808H891.05C893.526 417.808 895.226 419.871 895.226 422.446C895.226 424.758 894.219 426.491 892.75 427.614L892.734 427.597Z" fill="#BDF2FF"/>
<path d="M884.744 414.836V413.02H886.824V414.836H884.744ZM892.899 414.836V413.02H894.979V414.836H892.899Z" fill="#BDF2FF"/>
<path d="M888.095 410.181H888.062C884.183 410.181 880.897 407.869 880.897 404.304C880.897 400.738 884.15 398.476 888.029 398.476H888.062C891.942 398.476 895.227 400.771 895.227 404.337C895.227 407.902 891.974 410.181 888.095 410.181ZM888.095 400.11H888.062C885.041 400.11 882.317 401.778 882.317 404.353C882.317 406.928 884.975 408.563 888.013 408.563H888.046C891.067 408.563 893.79 406.895 893.79 404.304C893.79 401.712 891.116 400.11 888.095 400.11Z" fill="#BDF2FF"/>
<path d="M888.095 396.017H888.062C884.183 396.017 880.897 393.705 880.897 390.14C880.897 386.574 884.15 384.312 888.029 384.312H888.062C891.942 384.312 895.227 386.607 895.227 390.173C895.227 393.738 891.974 396.017 888.095 396.017ZM888.095 385.947H888.062C885.041 385.947 882.317 387.614 882.317 390.189C882.317 392.764 884.975 394.399 888.013 394.399H888.046C891.067 394.399 893.79 392.731 893.79 390.14C893.79 387.548 891.116 385.947 888.095 385.947Z" fill="#BDF2FF"/>
<path d="M177.876 489H180.518V504.023H177.876V489Z" fill="#F0FFFF"/>
<path d="M184.199 492.681H186.824V494.398C187.55 493.391 188.541 492.45 190.274 492.45C191.908 492.45 193.064 493.243 193.658 494.448C194.566 493.243 195.755 492.45 197.472 492.45C199.948 492.45 201.434 494.019 201.434 496.792V504.023H198.842V497.584C198.842 495.785 198 494.811 196.547 494.811C195.095 494.811 194.121 495.802 194.121 497.617V504.006H191.529V497.551C191.529 495.785 190.67 494.811 189.234 494.811C187.798 494.811 186.807 495.884 186.807 497.617V504.006H184.183V492.681H184.199Z" fill="#F0FFFF"/>
<path d="M204.571 492.681H207.195V494.563C208.037 493.391 209.209 492.434 211.058 492.434C213.716 492.434 216.324 494.53 216.324 498.311V498.36C216.324 502.108 213.749 504.237 211.058 504.237C209.176 504.237 207.988 503.296 207.195 502.24V507.44H204.571V492.681ZM213.667 498.377V498.327C213.667 496.132 212.164 494.695 210.431 494.695C208.698 494.695 207.129 496.148 207.129 498.327V498.377C207.129 500.539 208.681 502.009 210.431 502.009C212.181 502.009 213.667 500.622 213.667 498.377Z" fill="#F0FFFF"/>
<path d="M218.355 498.41V498.36C218.355 495.125 220.93 492.434 224.413 492.434C227.897 492.434 230.439 495.075 230.439 498.311V498.36C230.439 501.579 227.863 504.27 224.364 504.27C220.864 504.27 218.355 501.629 218.355 498.41ZM227.847 498.41V498.36C227.847 496.363 226.411 494.712 224.364 494.712C222.317 494.712 220.947 496.346 220.947 498.311V498.36C220.947 500.341 222.383 501.992 224.397 501.992C226.411 501.992 227.83 500.358 227.83 498.41H227.847Z" fill="#F0FFFF"/>
<path d="M233.063 492.681H235.688V495.24C236.398 493.54 237.702 492.384 239.7 492.467V495.207H239.551C237.273 495.207 235.688 496.693 235.688 499.697V504.006H233.063V492.681Z" fill="#F0FFFF"/>
<path d="M242.49 500.886V494.927H241.054V492.698H242.49V489.578H245.082V492.698H248.136V494.927H245.082V500.49C245.082 501.497 245.593 501.91 246.468 501.91C247.046 501.91 247.558 501.777 248.086 501.53V503.659C247.442 504.023 246.733 504.237 245.742 504.237C243.827 504.237 242.473 503.395 242.473 500.903L242.49 500.886Z" fill="#F0FFFF"/>
<path d="M547.497 489H558.64V491.361H550.138V495.273H557.666V497.65H550.138V501.662H558.739V504.023H547.497V489Z" fill="#F0FFFF"/>
<path d="M566.168 496.478L568.809 492.681H571.582L567.587 498.211L571.747 504.006H568.908L566.118 499.978L563.345 504.006H560.571L564.715 498.228L560.72 492.665H563.559L566.151 496.462L566.168 496.478Z" fill="#F0FFFF"/>
<path d="M574.009 492.681H576.634V494.563C577.476 493.391 578.648 492.434 580.497 492.434C583.154 492.434 585.763 494.53 585.763 498.311V498.36C585.763 502.108 583.187 504.237 580.497 504.237C578.615 504.237 577.426 503.296 576.634 502.24V507.44H574.009V492.681ZM583.105 498.377V498.327C583.105 496.132 581.603 494.695 579.869 494.695C578.136 494.695 576.568 496.148 576.568 498.327V498.377C576.568 500.539 578.119 502.009 579.869 502.009C581.619 502.009 583.105 500.622 583.105 498.377Z" fill="#F0FFFF"/>
<path d="M587.81 498.41V498.36C587.81 495.125 590.385 492.434 593.868 492.434C597.351 492.434 599.894 495.075 599.894 498.311V498.36C599.894 501.579 597.318 504.27 593.819 504.27C590.319 504.27 587.81 501.629 587.81 498.41ZM597.302 498.41V498.36C597.302 496.363 595.866 494.712 593.819 494.712C591.772 494.712 590.401 496.346 590.401 498.311V498.36C590.401 500.341 591.838 501.992 593.852 501.992C595.866 501.992 597.285 500.358 597.285 498.41H597.302Z" fill="#F0FFFF"/>
<path d="M602.502 492.681H605.127V495.24C605.837 493.54 607.141 492.384 609.138 492.467V495.207H608.99C606.712 495.207 605.127 496.693 605.127 499.697V504.006H602.502V492.681Z" fill="#F0FFFF"/>
<path d="M611.928 500.886V494.927H610.492V492.698H611.928V489.578H614.52V492.698H617.574V494.927H614.52V500.49C614.52 501.497 615.032 501.91 615.907 501.91C616.485 501.91 616.996 501.777 617.525 501.53V503.659C616.881 504.023 616.171 504.237 615.181 504.237C613.266 504.237 611.912 503.395 611.912 500.903L611.928 500.886Z" fill="#F0FFFF"/>
<path d="M133.833 496.313H165.198" stroke="#5840FF" stroke-width="6.6033" stroke-linecap="round" stroke-linejoin="round"/>
<path d="M503.618 496.313H534.983" stroke="#F050F8" stroke-width="6.6033" stroke-linecap="round" stroke-linejoin="round"/>
</svg>
